<mxfile host="Electron" agent="Mozilla/5.0 (Windows NT 10.0; Win64; x64) AppleWebKit/537.36 (KHTML, like Gecko) draw.io/26.0.9 Chrome/128.0.6613.186 Electron/32.2.5 Safari/537.36" version="26.0.9">
  <diagram name="Page-1" id="QamAfJmawHwSrFdFoYTq">
    <mxGraphModel dx="1344" dy="920" grid="1" gridSize="10" guides="1" tooltips="1" connect="1" arrows="1" fold="1" page="1" pageScale="1" pageWidth="850" pageHeight="1100" math="0" shadow="0">
      <root>
        <mxCell id="0" />
        <mxCell id="1" parent="0" />
        <mxCell id="JImb8V-sqcwgQgTmcxid-1" value="&lt;font style=&quot;font-size: 22px;&quot;&gt;&lt;b style=&quot;&quot;&gt;Keypad&lt;/b&gt;&lt;/font&gt;" style="whiteSpace=wrap;html=1;aspect=fixed;fillColor=#dae8fc;strokeColor=#3399FF;" vertex="1" parent="1">
          <mxGeometry x="150" y="360" width="220" height="220" as="geometry" />
        </mxCell>
        <mxCell id="JImb8V-sqcwgQgTmcxid-30" style="edgeStyle=orthogonalEdgeStyle;rounded=0;orthogonalLoop=1;jettySize=auto;html=1;exitX=1;exitY=0.5;exitDx=0;exitDy=0;entryX=0;entryY=0.5;entryDx=0;entryDy=0;endArrow=none;startFill=0;" edge="1" parent="1" source="JImb8V-sqcwgQgTmcxid-2" target="JImb8V-sqcwgQgTmcxid-15">
          <mxGeometry relative="1" as="geometry" />
        </mxCell>
        <mxCell id="JImb8V-sqcwgQgTmcxid-2" value="5" style="rounded=0;whiteSpace=wrap;html=1;fillColor=#0050ef;fontColor=#ffffff;strokeColor=#001DBC;" vertex="1" parent="1">
          <mxGeometry x="370" y="380" width="40" height="30" as="geometry" />
        </mxCell>
        <mxCell id="JImb8V-sqcwgQgTmcxid-31" style="edgeStyle=orthogonalEdgeStyle;rounded=0;orthogonalLoop=1;jettySize=auto;html=1;exitX=1;exitY=0.5;exitDx=0;exitDy=0;entryX=0;entryY=0.5;entryDx=0;entryDy=0;endArrow=none;startFill=0;" edge="1" parent="1" source="JImb8V-sqcwgQgTmcxid-3" target="JImb8V-sqcwgQgTmcxid-22">
          <mxGeometry relative="1" as="geometry" />
        </mxCell>
        <mxCell id="JImb8V-sqcwgQgTmcxid-3" value="6" style="rounded=0;whiteSpace=wrap;html=1;fillColor=#0050ef;fontColor=#ffffff;strokeColor=#001DBC;" vertex="1" parent="1">
          <mxGeometry x="370" y="430" width="40" height="30" as="geometry" />
        </mxCell>
        <mxCell id="JImb8V-sqcwgQgTmcxid-28" style="edgeStyle=orthogonalEdgeStyle;rounded=0;orthogonalLoop=1;jettySize=auto;html=1;exitX=0;exitY=0.5;exitDx=0;exitDy=0;entryX=0;entryY=0.5;entryDx=0;entryDy=0;endArrow=none;startFill=0;" edge="1" parent="1" source="JImb8V-sqcwgQgTmcxid-4" target="JImb8V-sqcwgQgTmcxid-16">
          <mxGeometry relative="1" as="geometry" />
        </mxCell>
        <mxCell id="JImb8V-sqcwgQgTmcxid-4" value="4" style="rounded=0;whiteSpace=wrap;html=1;direction=south;fillColor=#0050ef;fontColor=#ffffff;strokeColor=#001DBC;" vertex="1" parent="1">
          <mxGeometry x="320" y="320" width="30" height="40" as="geometry" />
        </mxCell>
        <mxCell id="JImb8V-sqcwgQgTmcxid-32" style="edgeStyle=orthogonalEdgeStyle;rounded=0;orthogonalLoop=1;jettySize=auto;html=1;exitX=1;exitY=0.5;exitDx=0;exitDy=0;entryX=0;entryY=0.5;entryDx=0;entryDy=0;endArrow=none;startFill=0;" edge="1" parent="1" source="JImb8V-sqcwgQgTmcxid-5" target="JImb8V-sqcwgQgTmcxid-21">
          <mxGeometry relative="1" as="geometry" />
        </mxCell>
        <mxCell id="JImb8V-sqcwgQgTmcxid-5" value="7" style="rounded=0;whiteSpace=wrap;html=1;fillColor=#0050ef;fontColor=#ffffff;strokeColor=#001DBC;" vertex="1" parent="1">
          <mxGeometry x="370" y="480" width="40" height="30" as="geometry" />
        </mxCell>
        <mxCell id="JImb8V-sqcwgQgTmcxid-33" style="edgeStyle=orthogonalEdgeStyle;rounded=0;orthogonalLoop=1;jettySize=auto;html=1;exitX=1;exitY=0.5;exitDx=0;exitDy=0;entryX=0;entryY=0.5;entryDx=0;entryDy=0;endArrow=none;startFill=0;" edge="1" parent="1" source="JImb8V-sqcwgQgTmcxid-6" target="JImb8V-sqcwgQgTmcxid-23">
          <mxGeometry relative="1" as="geometry">
            <Array as="points">
              <mxPoint x="510" y="545" />
              <mxPoint x="510" y="495" />
            </Array>
          </mxGeometry>
        </mxCell>
        <mxCell id="JImb8V-sqcwgQgTmcxid-6" value="8" style="rounded=0;whiteSpace=wrap;html=1;fillColor=#0050ef;fontColor=#ffffff;strokeColor=#001DBC;" vertex="1" parent="1">
          <mxGeometry x="370" y="530" width="40" height="30" as="geometry" />
        </mxCell>
        <mxCell id="JImb8V-sqcwgQgTmcxid-27" style="edgeStyle=orthogonalEdgeStyle;rounded=0;orthogonalLoop=1;jettySize=auto;html=1;exitX=0;exitY=0.5;exitDx=0;exitDy=0;entryX=0;entryY=0.25;entryDx=0;entryDy=0;endArrow=none;startFill=0;" edge="1" parent="1" source="JImb8V-sqcwgQgTmcxid-7" target="JImb8V-sqcwgQgTmcxid-17">
          <mxGeometry relative="1" as="geometry" />
        </mxCell>
        <mxCell id="JImb8V-sqcwgQgTmcxid-7" value="3" style="rounded=0;whiteSpace=wrap;html=1;direction=south;fillColor=#0050ef;fontColor=#ffffff;strokeColor=#001DBC;" vertex="1" parent="1">
          <mxGeometry x="270" y="320" width="30" height="40" as="geometry" />
        </mxCell>
        <mxCell id="JImb8V-sqcwgQgTmcxid-26" style="edgeStyle=orthogonalEdgeStyle;rounded=0;orthogonalLoop=1;jettySize=auto;html=1;exitX=0;exitY=0.5;exitDx=0;exitDy=0;entryX=0;entryY=0.5;entryDx=0;entryDy=0;endArrow=none;startFill=0;" edge="1" parent="1" source="JImb8V-sqcwgQgTmcxid-8" target="JImb8V-sqcwgQgTmcxid-18">
          <mxGeometry relative="1" as="geometry" />
        </mxCell>
        <mxCell id="JImb8V-sqcwgQgTmcxid-8" value="2" style="rounded=0;whiteSpace=wrap;html=1;direction=south;fillColor=#0050ef;fontColor=#ffffff;strokeColor=#001DBC;" vertex="1" parent="1">
          <mxGeometry x="220" y="320" width="30" height="40" as="geometry" />
        </mxCell>
        <mxCell id="JImb8V-sqcwgQgTmcxid-29" style="edgeStyle=orthogonalEdgeStyle;rounded=0;orthogonalLoop=1;jettySize=auto;html=1;exitX=0;exitY=0.5;exitDx=0;exitDy=0;entryX=0;entryY=0.5;entryDx=0;entryDy=0;endArrow=none;startFill=0;" edge="1" parent="1" source="JImb8V-sqcwgQgTmcxid-9" target="JImb8V-sqcwgQgTmcxid-19">
          <mxGeometry relative="1" as="geometry" />
        </mxCell>
        <mxCell id="JImb8V-sqcwgQgTmcxid-9" value="1" style="rounded=0;whiteSpace=wrap;html=1;direction=south;fillColor=#0050ef;fontColor=#ffffff;strokeColor=#001DBC;" vertex="1" parent="1">
          <mxGeometry x="170" y="320" width="30" height="40" as="geometry" />
        </mxCell>
        <mxCell id="JImb8V-sqcwgQgTmcxid-13" value="&lt;font style=&quot;font-size: 18px;&quot;&gt;&lt;b&gt;MSP430&lt;/b&gt;&lt;/font&gt;" style="rounded=0;whiteSpace=wrap;html=1;fillColor=#f8cecc;strokeColor=#b85450;" vertex="1" parent="1">
          <mxGeometry x="610" y="150" width="180" height="410" as="geometry" />
        </mxCell>
        <mxCell id="JImb8V-sqcwgQgTmcxid-36" style="edgeStyle=orthogonalEdgeStyle;rounded=0;orthogonalLoop=1;jettySize=auto;html=1;exitX=0;exitY=0.5;exitDx=0;exitDy=0;" edge="1" parent="1" source="JImb8V-sqcwgQgTmcxid-14">
          <mxGeometry relative="1" as="geometry">
            <mxPoint x="540" y="110" as="targetPoint" />
          </mxGeometry>
        </mxCell>
        <mxCell id="JImb8V-sqcwgQgTmcxid-14" value="Vcc" style="rounded=0;whiteSpace=wrap;html=1;strokeColor=#B20000;fillColor=#e51400;fontColor=#ffffff;" vertex="1" parent="1">
          <mxGeometry x="570" y="150" width="40" height="30" as="geometry" />
        </mxCell>
        <mxCell id="JImb8V-sqcwgQgTmcxid-15" value="1.4" style="rounded=0;whiteSpace=wrap;html=1;" vertex="1" parent="1">
          <mxGeometry x="570" y="360" width="40" height="30" as="geometry" />
        </mxCell>
        <mxCell id="JImb8V-sqcwgQgTmcxid-16" value="1.3" style="rounded=0;whiteSpace=wrap;html=1;" vertex="1" parent="1">
          <mxGeometry x="570" y="320" width="40" height="30" as="geometry" />
        </mxCell>
        <mxCell id="JImb8V-sqcwgQgTmcxid-17" value="1.2" style="rounded=0;whiteSpace=wrap;html=1;" vertex="1" parent="1">
          <mxGeometry x="570" y="280" width="40" height="30" as="geometry" />
        </mxCell>
        <mxCell id="JImb8V-sqcwgQgTmcxid-18" value="1.1" style="rounded=0;whiteSpace=wrap;html=1;" vertex="1" parent="1">
          <mxGeometry x="570" y="240" width="40" height="30" as="geometry" />
        </mxCell>
        <mxCell id="JImb8V-sqcwgQgTmcxid-19" value="1.0" style="rounded=0;whiteSpace=wrap;html=1;" vertex="1" parent="1">
          <mxGeometry x="570" y="200" width="40" height="30" as="geometry" />
        </mxCell>
        <mxCell id="JImb8V-sqcwgQgTmcxid-21" value="1.6" style="rounded=0;whiteSpace=wrap;html=1;" vertex="1" parent="1">
          <mxGeometry x="570" y="440" width="40" height="30" as="geometry" />
        </mxCell>
        <mxCell id="JImb8V-sqcwgQgTmcxid-22" value="1.5" style="rounded=0;whiteSpace=wrap;html=1;" vertex="1" parent="1">
          <mxGeometry x="570" y="400" width="40" height="30" as="geometry" />
        </mxCell>
        <mxCell id="JImb8V-sqcwgQgTmcxid-23" value="1.7" style="rounded=0;whiteSpace=wrap;html=1;" vertex="1" parent="1">
          <mxGeometry x="570" y="480" width="40" height="30" as="geometry" />
        </mxCell>
        <mxCell id="JImb8V-sqcwgQgTmcxid-24" value="Gnd" style="rounded=0;whiteSpace=wrap;html=1;fillColor=#647687;fontColor=#ffffff;strokeColor=#314354;" vertex="1" parent="1">
          <mxGeometry x="570" y="530" width="40" height="30" as="geometry" />
        </mxCell>
        <mxCell id="JImb8V-sqcwgQgTmcxid-35" style="edgeStyle=orthogonalEdgeStyle;rounded=0;orthogonalLoop=1;jettySize=auto;html=1;exitX=0.5;exitY=0;exitDx=0;exitDy=0;exitPerimeter=0;entryX=0;entryY=0.5;entryDx=0;entryDy=0;endArrow=none;startFill=0;" edge="1" parent="1" source="JImb8V-sqcwgQgTmcxid-34" target="JImb8V-sqcwgQgTmcxid-24">
          <mxGeometry relative="1" as="geometry" />
        </mxCell>
        <mxCell id="JImb8V-sqcwgQgTmcxid-34" value="" style="pointerEvents=1;verticalLabelPosition=bottom;shadow=0;dashed=0;align=center;html=1;verticalAlign=top;shape=mxgraph.electrical.signal_sources.signal_ground;" vertex="1" parent="1">
          <mxGeometry x="525" y="590" width="45" height="30" as="geometry" />
        </mxCell>
        <mxCell id="JImb8V-sqcwgQgTmcxid-37" value="+3.3V" style="text;html=1;align=center;verticalAlign=middle;resizable=0;points=[];autosize=1;strokeColor=none;fillColor=none;" vertex="1" parent="1">
          <mxGeometry x="510" y="88" width="60" height="30" as="geometry" />
        </mxCell>
        <mxCell id="JImb8V-sqcwgQgTmcxid-44" value="3.7" style="rounded=0;whiteSpace=wrap;html=1;" vertex="1" parent="1">
          <mxGeometry x="790" y="480" width="40" height="30" as="geometry" />
        </mxCell>
        <mxCell id="JImb8V-sqcwgQgTmcxid-45" value="3.6" style="rounded=0;whiteSpace=wrap;html=1;" vertex="1" parent="1">
          <mxGeometry x="790" y="440" width="40" height="30" as="geometry" />
        </mxCell>
        <mxCell id="JImb8V-sqcwgQgTmcxid-46" value="3.5" style="rounded=0;whiteSpace=wrap;html=1;" vertex="1" parent="1">
          <mxGeometry x="790" y="400" width="40" height="30" as="geometry" />
        </mxCell>
        <mxCell id="JImb8V-sqcwgQgTmcxid-47" value="3.4" style="rounded=0;whiteSpace=wrap;html=1;" vertex="1" parent="1">
          <mxGeometry x="790" y="360" width="40" height="30" as="geometry" />
        </mxCell>
        <mxCell id="JImb8V-sqcwgQgTmcxid-48" value="3.3" style="rounded=0;whiteSpace=wrap;html=1;" vertex="1" parent="1">
          <mxGeometry x="790" y="320" width="40" height="30" as="geometry" />
        </mxCell>
        <mxCell id="JImb8V-sqcwgQgTmcxid-49" value="3.2" style="rounded=0;whiteSpace=wrap;html=1;" vertex="1" parent="1">
          <mxGeometry x="790" y="280" width="40" height="30" as="geometry" />
        </mxCell>
        <mxCell id="JImb8V-sqcwgQgTmcxid-50" value="3.1" style="rounded=0;whiteSpace=wrap;html=1;" vertex="1" parent="1">
          <mxGeometry x="790" y="240" width="40" height="30" as="geometry" />
        </mxCell>
        <mxCell id="JImb8V-sqcwgQgTmcxid-51" value="3.0" style="rounded=0;whiteSpace=wrap;html=1;" vertex="1" parent="1">
          <mxGeometry x="790" y="200" width="40" height="30" as="geometry" />
        </mxCell>
        <mxCell id="JImb8V-sqcwgQgTmcxid-53" value="&lt;font style=&quot;font-size: 20px&quot;&gt;LED Bar&lt;/font&gt;" style="rounded=0;whiteSpace=wrap;html=1;rotation=90;fillColor=#d5e8d4;strokeColor=#82b366;" vertex="1" parent="1">
          <mxGeometry x="890" y="297.75" width="240" height="99.5" as="geometry" />
        </mxCell>
        <mxCell id="JImb8V-sqcwgQgTmcxid-54" value="&lt;font style=&quot;font-size: 14px ; font-family: &amp;#34;calibri&amp;#34; ; color: #feffff ; direction: ltr ; letter-spacing: 0px ; line-height: 120% ; opacity: 1&quot;&gt;1&lt;br&gt;&lt;/font&gt;" style="verticalAlign=middle;align=center;vsdxID=5;fillColor=#008a00;shape=stencil(nZBLDoAgDERP0z3SIyjew0SURgSD+Lu9kMZoXLhwN9O+tukAlrNpJg1SzDH4QW/URgNYgZTkjA4UkwJUgGXng+6DX1zLfmoymdXo17xh5zmRJ6Q42BWCfc2oJfdAr+Yv+AP9Cb7OJ3H/2JG1HNGz/84klThPVCc=);strokeColor=#005700;labelBackgroundColor=none;rounded=0;html=1;whiteSpace=wrap;fontColor=#ffffff;" vertex="1" parent="1">
          <mxGeometry x="920" y="230" width="38" height="25" as="geometry" />
        </mxCell>
        <mxCell id="JImb8V-sqcwgQgTmcxid-55" value="&lt;font style=&quot;font-size: 14px ; font-family: &amp;#34;calibri&amp;#34; ; color: #feffff ; direction: ltr ; letter-spacing: 0px ; line-height: 120% ; opacity: 1&quot;&gt;2&lt;br&gt;&lt;/font&gt;" style="verticalAlign=middle;align=center;vsdxID=8;fillColor=#008a00;shape=stencil(nZBLDoAgDERP0z3SIyjew0SURgSD+Lu9kMZoXLhwN9O+tukAlrNpJg1SzDH4QW/URgNYgZTkjA4UkwJUgGXng+6DX1zLfmoymdXo17xh5zmRJ6Q42BWCfc2oJfdAr+Yv+AP9Cb7OJ3H/2JG1HNGz/84klThPVCc=);strokeColor=#005700;labelBackgroundColor=none;rounded=0;html=1;whiteSpace=wrap;fontColor=#ffffff;" vertex="1" parent="1">
          <mxGeometry x="920" y="260" width="38" height="25" as="geometry" />
        </mxCell>
        <mxCell id="JImb8V-sqcwgQgTmcxid-56" value="&lt;font style=&quot;font-size: 14px ; font-family: &amp;#34;calibri&amp;#34; ; color: #feffff ; direction: ltr ; letter-spacing: 0px ; line-height: 120% ; opacity: 1&quot;&gt;3&lt;br&gt;&lt;/font&gt;" style="verticalAlign=middle;align=center;vsdxID=8;fillColor=#008a00;shape=stencil(nZBLDoAgDERP0z3SIyjew0SURgSD+Lu9kMZoXLhwN9O+tukAlrNpJg1SzDH4QW/URgNYgZTkjA4UkwJUgGXng+6DX1zLfmoymdXo17xh5zmRJ6Q42BWCfc2oJfdAr+Yv+AP9Cb7OJ3H/2JG1HNGz/84klThPVCc=);strokeColor=#005700;labelBackgroundColor=none;rounded=0;html=1;whiteSpace=wrap;fontColor=#ffffff;" vertex="1" parent="1">
          <mxGeometry x="920" y="290" width="38" height="25" as="geometry" />
        </mxCell>
        <mxCell id="JImb8V-sqcwgQgTmcxid-57" value="&lt;font style=&quot;font-size: 14px ; font-family: &amp;#34;calibri&amp;#34; ; color: #feffff ; direction: ltr ; letter-spacing: 0px ; line-height: 120% ; opacity: 1&quot;&gt;4&lt;br&gt;&lt;/font&gt;" style="verticalAlign=middle;align=center;vsdxID=8;fillColor=#008a00;shape=stencil(nZBLDoAgDERP0z3SIyjew0SURgSD+Lu9kMZoXLhwN9O+tukAlrNpJg1SzDH4QW/URgNYgZTkjA4UkwJUgGXng+6DX1zLfmoymdXo17xh5zmRJ6Q42BWCfc2oJfdAr+Yv+AP9Cb7OJ3H/2JG1HNGz/84klThPVCc=);strokeColor=#005700;labelBackgroundColor=none;rounded=0;html=1;whiteSpace=wrap;fontColor=#ffffff;" vertex="1" parent="1">
          <mxGeometry x="920" y="320" width="38" height="25" as="geometry" />
        </mxCell>
        <mxCell id="JImb8V-sqcwgQgTmcxid-58" value="&lt;font style=&quot;font-size: 14px ; font-family: &amp;#34;calibri&amp;#34; ; color: #feffff ; direction: ltr ; letter-spacing: 0px ; line-height: 120% ; opacity: 1&quot;&gt;5&lt;br&gt;&lt;/font&gt;" style="verticalAlign=middle;align=center;vsdxID=8;fillColor=#008a00;shape=stencil(nZBLDoAgDERP0z3SIyjew0SURgSD+Lu9kMZoXLhwN9O+tukAlrNpJg1SzDH4QW/URgNYgZTkjA4UkwJUgGXng+6DX1zLfmoymdXo17xh5zmRJ6Q42BWCfc2oJfdAr+Yv+AP9Cb7OJ3H/2JG1HNGz/84klThPVCc=);strokeColor=#005700;labelBackgroundColor=none;rounded=0;html=1;whiteSpace=wrap;fontColor=#ffffff;" vertex="1" parent="1">
          <mxGeometry x="920" y="349" width="38" height="25" as="geometry" />
        </mxCell>
        <mxCell id="JImb8V-sqcwgQgTmcxid-59" value="&lt;font style=&quot;font-size: 14px ; font-family: &amp;#34;calibri&amp;#34; ; color: #feffff ; direction: ltr ; letter-spacing: 0px ; line-height: 120% ; opacity: 1&quot;&gt;6&lt;br&gt;&lt;/font&gt;" style="verticalAlign=middle;align=center;vsdxID=8;fillColor=#008a00;shape=stencil(nZBLDoAgDERP0z3SIyjew0SURgSD+Lu9kMZoXLhwN9O+tukAlrNpJg1SzDH4QW/URgNYgZTkjA4UkwJUgGXng+6DX1zLfmoymdXo17xh5zmRJ6Q42BWCfc2oJfdAr+Yv+AP9Cb7OJ3H/2JG1HNGz/84klThPVCc=);strokeColor=#005700;labelBackgroundColor=none;rounded=0;html=1;whiteSpace=wrap;fontColor=#ffffff;" vertex="1" parent="1">
          <mxGeometry x="920" y="380" width="38" height="25" as="geometry" />
        </mxCell>
        <mxCell id="JImb8V-sqcwgQgTmcxid-60" value="&lt;font style=&quot;font-size: 14px ; font-family: &amp;#34;calibri&amp;#34; ; color: #feffff ; direction: ltr ; letter-spacing: 0px ; line-height: 120% ; opacity: 1&quot;&gt;7&lt;br&gt;&lt;/font&gt;" style="verticalAlign=middle;align=center;vsdxID=8;fillColor=#008a00;shape=stencil(nZBLDoAgDERP0z3SIyjew0SURgSD+Lu9kMZoXLhwN9O+tukAlrNpJg1SzDH4QW/URgNYgZTkjA4UkwJUgGXng+6DX1zLfmoymdXo17xh5zmRJ6Q42BWCfc2oJfdAr+Yv+AP9Cb7OJ3H/2JG1HNGz/84klThPVCc=);strokeColor=#005700;labelBackgroundColor=none;rounded=0;html=1;whiteSpace=wrap;fontColor=#ffffff;" vertex="1" parent="1">
          <mxGeometry x="920" y="410" width="38" height="25" as="geometry" />
        </mxCell>
        <mxCell id="JImb8V-sqcwgQgTmcxid-61" value="&lt;font style=&quot;font-size: 14px ; font-family: &amp;#34;calibri&amp;#34; ; color: #feffff ; direction: ltr ; letter-spacing: 0px ; line-height: 120% ; opacity: 1&quot;&gt;8&lt;br&gt;&lt;/font&gt;" style="verticalAlign=middle;align=center;vsdxID=8;fillColor=#008a00;shape=stencil(nZBLDoAgDERP0z3SIyjew0SURgSD+Lu9kMZoXLhwN9O+tukAlrNpJg1SzDH4QW/URgNYgZTkjA4UkwJUgGXng+6DX1zLfmoymdXo17xh5zmRJ6Q42BWCfc2oJfdAr+Yv+AP9Cb7OJ3H/2JG1HNGz/84klThPVCc=);strokeColor=#005700;labelBackgroundColor=none;rounded=0;html=1;whiteSpace=wrap;fontColor=#ffffff;" vertex="1" parent="1">
          <mxGeometry x="920" y="440" width="38" height="25" as="geometry" />
        </mxCell>
        <mxCell id="JImb8V-sqcwgQgTmcxid-62" style="edgeStyle=orthogonalEdgeStyle;rounded=0;orthogonalLoop=1;jettySize=auto;html=1;exitX=1;exitY=0.5;exitDx=0;exitDy=0;entryX=-0.018;entryY=0.467;entryDx=0;entryDy=0;entryPerimeter=0;endArrow=none;startFill=0;" edge="1" parent="1" source="JImb8V-sqcwgQgTmcxid-51" target="JImb8V-sqcwgQgTmcxid-54">
          <mxGeometry relative="1" as="geometry" />
        </mxCell>
        <mxCell id="JImb8V-sqcwgQgTmcxid-63" style="edgeStyle=orthogonalEdgeStyle;rounded=0;orthogonalLoop=1;jettySize=auto;html=1;exitX=1;exitY=0.5;exitDx=0;exitDy=0;entryX=-0.07;entryY=0.467;entryDx=0;entryDy=0;entryPerimeter=0;endArrow=none;startFill=0;" edge="1" parent="1" source="JImb8V-sqcwgQgTmcxid-50" target="JImb8V-sqcwgQgTmcxid-55">
          <mxGeometry relative="1" as="geometry" />
        </mxCell>
        <mxCell id="JImb8V-sqcwgQgTmcxid-64" style="edgeStyle=orthogonalEdgeStyle;rounded=0;orthogonalLoop=1;jettySize=auto;html=1;exitX=1;exitY=0.5;exitDx=0;exitDy=0;entryX=-0.07;entryY=0.44;entryDx=0;entryDy=0;entryPerimeter=0;endArrow=none;startFill=0;" edge="1" parent="1" source="JImb8V-sqcwgQgTmcxid-49" target="JImb8V-sqcwgQgTmcxid-56">
          <mxGeometry relative="1" as="geometry" />
        </mxCell>
        <mxCell id="JImb8V-sqcwgQgTmcxid-65" style="edgeStyle=orthogonalEdgeStyle;rounded=0;orthogonalLoop=1;jettySize=auto;html=1;entryX=-0.053;entryY=0.467;entryDx=0;entryDy=0;entryPerimeter=0;endArrow=none;startFill=0;" edge="1" parent="1" source="JImb8V-sqcwgQgTmcxid-48" target="JImb8V-sqcwgQgTmcxid-57">
          <mxGeometry relative="1" as="geometry" />
        </mxCell>
        <mxCell id="JImb8V-sqcwgQgTmcxid-66" style="edgeStyle=orthogonalEdgeStyle;rounded=0;orthogonalLoop=1;jettySize=auto;html=1;entryX=0.035;entryY=0.507;entryDx=0;entryDy=0;entryPerimeter=0;endArrow=none;startFill=0;" edge="1" parent="1" source="JImb8V-sqcwgQgTmcxid-47" target="JImb8V-sqcwgQgTmcxid-58">
          <mxGeometry relative="1" as="geometry" />
        </mxCell>
        <mxCell id="JImb8V-sqcwgQgTmcxid-67" style="edgeStyle=orthogonalEdgeStyle;rounded=0;orthogonalLoop=1;jettySize=auto;html=1;exitX=1;exitY=0.5;exitDx=0;exitDy=0;entryX=0;entryY=0.4;entryDx=0;entryDy=0;entryPerimeter=0;endArrow=none;startFill=0;" edge="1" parent="1" source="JImb8V-sqcwgQgTmcxid-46" target="JImb8V-sqcwgQgTmcxid-59">
          <mxGeometry relative="1" as="geometry" />
        </mxCell>
        <mxCell id="JImb8V-sqcwgQgTmcxid-68" style="edgeStyle=orthogonalEdgeStyle;rounded=0;orthogonalLoop=1;jettySize=auto;html=1;entryX=-0.018;entryY=0.467;entryDx=0;entryDy=0;entryPerimeter=0;endArrow=none;startFill=0;" edge="1" parent="1" source="JImb8V-sqcwgQgTmcxid-45" target="JImb8V-sqcwgQgTmcxid-60">
          <mxGeometry relative="1" as="geometry">
            <Array as="points">
              <mxPoint x="880" y="455" />
              <mxPoint x="880" y="422" />
            </Array>
          </mxGeometry>
        </mxCell>
        <mxCell id="JImb8V-sqcwgQgTmcxid-69" style="edgeStyle=orthogonalEdgeStyle;rounded=0;orthogonalLoop=1;jettySize=auto;html=1;entryX=-0.018;entryY=0.467;entryDx=0;entryDy=0;entryPerimeter=0;endArrow=none;startFill=0;" edge="1" parent="1" source="JImb8V-sqcwgQgTmcxid-44" target="JImb8V-sqcwgQgTmcxid-61">
          <mxGeometry relative="1" as="geometry">
            <Array as="points">
              <mxPoint x="900" y="495" />
              <mxPoint x="900" y="452" />
            </Array>
          </mxGeometry>
        </mxCell>
        <mxCell id="JImb8V-sqcwgQgTmcxid-70" value="&lt;font style=&quot;font-size: 20px&quot;&gt;4100R&lt;/font&gt;" style="rounded=0;whiteSpace=wrap;html=1;rotation=90;fillColor=#bac8d3;strokeColor=#23445d;" vertex="1" parent="1">
          <mxGeometry x="1098.63" y="296.38" width="240" height="102.25" as="geometry" />
        </mxCell>
        <mxCell id="JImb8V-sqcwgQgTmcxid-71" value="&lt;font style=&quot;font-size: 14px ; font-family: &amp;#34;calibri&amp;#34; ; color: #feffff ; direction: ltr ; letter-spacing: 0px ; line-height: 120% ; opacity: 1&quot;&gt;1&lt;br&gt;&lt;/font&gt;" style="verticalAlign=middle;align=center;vsdxID=5;fillColor=#647687;shape=stencil(nZBLDoAgDERP0z3SIyjew0SURgSD+Lu9kMZoXLhwN9O+tukAlrNpJg1SzDH4QW/URgNYgZTkjA4UkwJUgGXng+6DX1zLfmoymdXo17xh5zmRJ6Q42BWCfc2oJfdAr+Yv+AP9Cb7OJ3H/2JG1HNGz/84klThPVCc=);strokeColor=#314354;labelBackgroundColor=none;rounded=0;html=1;whiteSpace=wrap;fontColor=#ffffff;" vertex="1" parent="1">
          <mxGeometry x="1130" y="230" width="38" height="25" as="geometry" />
        </mxCell>
        <mxCell id="JImb8V-sqcwgQgTmcxid-72" value="&lt;font style=&quot;font-size: 14px ; font-family: &amp;#34;calibri&amp;#34; ; color: #feffff ; direction: ltr ; letter-spacing: 0px ; line-height: 120% ; opacity: 1&quot;&gt;2&lt;br&gt;&lt;/font&gt;" style="verticalAlign=middle;align=center;vsdxID=8;fillColor=#647687;shape=stencil(nZBLDoAgDERP0z3SIyjew0SURgSD+Lu9kMZoXLhwN9O+tukAlrNpJg1SzDH4QW/URgNYgZTkjA4UkwJUgGXng+6DX1zLfmoymdXo17xh5zmRJ6Q42BWCfc2oJfdAr+Yv+AP9Cb7OJ3H/2JG1HNGz/84klThPVCc=);strokeColor=#314354;labelBackgroundColor=none;rounded=0;html=1;whiteSpace=wrap;fontColor=#ffffff;" vertex="1" parent="1">
          <mxGeometry x="1130" y="260" width="38" height="25" as="geometry" />
        </mxCell>
        <mxCell id="JImb8V-sqcwgQgTmcxid-73" value="&lt;font style=&quot;font-size: 14px ; font-family: &amp;#34;calibri&amp;#34; ; color: #feffff ; direction: ltr ; letter-spacing: 0px ; line-height: 120% ; opacity: 1&quot;&gt;3&lt;br&gt;&lt;/font&gt;" style="verticalAlign=middle;align=center;vsdxID=8;fillColor=#647687;shape=stencil(nZBLDoAgDERP0z3SIyjew0SURgSD+Lu9kMZoXLhwN9O+tukAlrNpJg1SzDH4QW/URgNYgZTkjA4UkwJUgGXng+6DX1zLfmoymdXo17xh5zmRJ6Q42BWCfc2oJfdAr+Yv+AP9Cb7OJ3H/2JG1HNGz/84klThPVCc=);strokeColor=#314354;labelBackgroundColor=none;rounded=0;html=1;whiteSpace=wrap;fontColor=#ffffff;" vertex="1" parent="1">
          <mxGeometry x="1130" y="290" width="38" height="25" as="geometry" />
        </mxCell>
        <mxCell id="JImb8V-sqcwgQgTmcxid-74" value="&lt;font style=&quot;font-size: 14px ; font-family: &amp;#34;calibri&amp;#34; ; color: #feffff ; direction: ltr ; letter-spacing: 0px ; line-height: 120% ; opacity: 1&quot;&gt;4&lt;br&gt;&lt;/font&gt;" style="verticalAlign=middle;align=center;vsdxID=8;fillColor=#647687;shape=stencil(nZBLDoAgDERP0z3SIyjew0SURgSD+Lu9kMZoXLhwN9O+tukAlrNpJg1SzDH4QW/URgNYgZTkjA4UkwJUgGXng+6DX1zLfmoymdXo17xh5zmRJ6Q42BWCfc2oJfdAr+Yv+AP9Cb7OJ3H/2JG1HNGz/84klThPVCc=);strokeColor=#314354;labelBackgroundColor=none;rounded=0;html=1;whiteSpace=wrap;fontColor=#ffffff;" vertex="1" parent="1">
          <mxGeometry x="1130" y="320" width="38" height="25" as="geometry" />
        </mxCell>
        <mxCell id="JImb8V-sqcwgQgTmcxid-75" value="&lt;font style=&quot;font-size: 14px ; font-family: &amp;#34;calibri&amp;#34; ; color: #feffff ; direction: ltr ; letter-spacing: 0px ; line-height: 120% ; opacity: 1&quot;&gt;5&lt;br&gt;&lt;/font&gt;" style="verticalAlign=middle;align=center;vsdxID=8;fillColor=#647687;shape=stencil(nZBLDoAgDERP0z3SIyjew0SURgSD+Lu9kMZoXLhwN9O+tukAlrNpJg1SzDH4QW/URgNYgZTkjA4UkwJUgGXng+6DX1zLfmoymdXo17xh5zmRJ6Q42BWCfc2oJfdAr+Yv+AP9Cb7OJ3H/2JG1HNGz/84klThPVCc=);strokeColor=#314354;labelBackgroundColor=none;rounded=0;html=1;whiteSpace=wrap;fontColor=#ffffff;" vertex="1" parent="1">
          <mxGeometry x="1130" y="349" width="38" height="25" as="geometry" />
        </mxCell>
        <mxCell id="JImb8V-sqcwgQgTmcxid-76" value="&lt;font style=&quot;font-size: 14px ; font-family: &amp;#34;calibri&amp;#34; ; color: #feffff ; direction: ltr ; letter-spacing: 0px ; line-height: 120% ; opacity: 1&quot;&gt;6&lt;br&gt;&lt;/font&gt;" style="verticalAlign=middle;align=center;vsdxID=8;fillColor=#647687;shape=stencil(nZBLDoAgDERP0z3SIyjew0SURgSD+Lu9kMZoXLhwN9O+tukAlrNpJg1SzDH4QW/URgNYgZTkjA4UkwJUgGXng+6DX1zLfmoymdXo17xh5zmRJ6Q42BWCfc2oJfdAr+Yv+AP9Cb7OJ3H/2JG1HNGz/84klThPVCc=);strokeColor=#314354;labelBackgroundColor=none;rounded=0;html=1;whiteSpace=wrap;fontColor=#ffffff;" vertex="1" parent="1">
          <mxGeometry x="1130" y="380" width="38" height="25" as="geometry" />
        </mxCell>
        <mxCell id="JImb8V-sqcwgQgTmcxid-77" value="&lt;font style=&quot;font-size: 14px ; font-family: &amp;#34;calibri&amp;#34; ; color: #feffff ; direction: ltr ; letter-spacing: 0px ; line-height: 120% ; opacity: 1&quot;&gt;7&lt;br&gt;&lt;/font&gt;" style="verticalAlign=middle;align=center;vsdxID=8;fillColor=#647687;shape=stencil(nZBLDoAgDERP0z3SIyjew0SURgSD+Lu9kMZoXLhwN9O+tukAlrNpJg1SzDH4QW/URgNYgZTkjA4UkwJUgGXng+6DX1zLfmoymdXo17xh5zmRJ6Q42BWCfc2oJfdAr+Yv+AP9Cb7OJ3H/2JG1HNGz/84klThPVCc=);strokeColor=#314354;labelBackgroundColor=none;rounded=0;html=1;whiteSpace=wrap;fontColor=#ffffff;" vertex="1" parent="1">
          <mxGeometry x="1130" y="410" width="38" height="25" as="geometry" />
        </mxCell>
        <mxCell id="JImb8V-sqcwgQgTmcxid-78" value="&lt;font style=&quot;font-size: 14px ; font-family: &amp;#34;calibri&amp;#34; ; color: #feffff ; direction: ltr ; letter-spacing: 0px ; line-height: 120% ; opacity: 1&quot;&gt;8&lt;br&gt;&lt;/font&gt;" style="verticalAlign=middle;align=center;vsdxID=8;fillColor=#647687;shape=stencil(nZBLDoAgDERP0z3SIyjew0SURgSD+Lu9kMZoXLhwN9O+tukAlrNpJg1SzDH4QW/URgNYgZTkjA4UkwJUgGXng+6DX1zLfmoymdXo17xh5zmRJ6Q42BWCfc2oJfdAr+Yv+AP9Cb7OJ3H/2JG1HNGz/84klThPVCc=);strokeColor=#314354;labelBackgroundColor=none;rounded=0;html=1;whiteSpace=wrap;fontColor=#ffffff;" vertex="1" parent="1">
          <mxGeometry x="1130" y="440" width="38" height="25" as="geometry" />
        </mxCell>
        <mxCell id="JImb8V-sqcwgQgTmcxid-79" style="edgeStyle=orthogonalEdgeStyle;rounded=0;orthogonalLoop=1;jettySize=auto;html=1;entryX=0.063;entryY=-0.003;entryDx=0;entryDy=0;entryPerimeter=0;endArrow=none;startFill=0;" edge="1" parent="1" source="JImb8V-sqcwgQgTmcxid-71" target="JImb8V-sqcwgQgTmcxid-53">
          <mxGeometry relative="1" as="geometry" />
        </mxCell>
        <mxCell id="JImb8V-sqcwgQgTmcxid-80" style="edgeStyle=orthogonalEdgeStyle;rounded=0;orthogonalLoop=1;jettySize=auto;html=1;entryX=0.063;entryY=-0.003;entryDx=0;entryDy=0;entryPerimeter=0;endArrow=none;startFill=0;" edge="1" parent="1">
          <mxGeometry relative="1" as="geometry">
            <mxPoint x="1130" y="452" as="sourcePoint" />
            <mxPoint x="1060" y="452" as="targetPoint" />
          </mxGeometry>
        </mxCell>
        <mxCell id="JImb8V-sqcwgQgTmcxid-88" style="edgeStyle=orthogonalEdgeStyle;rounded=0;orthogonalLoop=1;jettySize=auto;html=1;entryX=0.063;entryY=-0.003;entryDx=0;entryDy=0;entryPerimeter=0;endArrow=none;startFill=0;" edge="1" parent="1">
          <mxGeometry relative="1" as="geometry">
            <mxPoint x="1130" y="302" as="sourcePoint" />
            <mxPoint x="1060" y="302" as="targetPoint" />
          </mxGeometry>
        </mxCell>
        <mxCell id="JImb8V-sqcwgQgTmcxid-89" style="edgeStyle=orthogonalEdgeStyle;rounded=0;orthogonalLoop=1;jettySize=auto;html=1;entryX=0.063;entryY=-0.003;entryDx=0;entryDy=0;entryPerimeter=0;endArrow=none;startFill=0;" edge="1" parent="1">
          <mxGeometry relative="1" as="geometry">
            <mxPoint x="1130" y="272" as="sourcePoint" />
            <mxPoint x="1060" y="272" as="targetPoint" />
          </mxGeometry>
        </mxCell>
        <mxCell id="JImb8V-sqcwgQgTmcxid-90" style="edgeStyle=orthogonalEdgeStyle;rounded=0;orthogonalLoop=1;jettySize=auto;html=1;entryX=0.063;entryY=-0.003;entryDx=0;entryDy=0;entryPerimeter=0;endArrow=none;startFill=0;" edge="1" parent="1">
          <mxGeometry relative="1" as="geometry">
            <mxPoint x="1130" y="334.5" as="sourcePoint" />
            <mxPoint x="1060" y="334.5" as="targetPoint" />
          </mxGeometry>
        </mxCell>
        <mxCell id="JImb8V-sqcwgQgTmcxid-91" style="edgeStyle=orthogonalEdgeStyle;rounded=0;orthogonalLoop=1;jettySize=auto;html=1;entryX=0.063;entryY=-0.003;entryDx=0;entryDy=0;entryPerimeter=0;endArrow=none;startFill=0;" edge="1" parent="1">
          <mxGeometry relative="1" as="geometry">
            <mxPoint x="1130" y="361" as="sourcePoint" />
            <mxPoint x="1060" y="361" as="targetPoint" />
          </mxGeometry>
        </mxCell>
        <mxCell id="JImb8V-sqcwgQgTmcxid-92" style="edgeStyle=orthogonalEdgeStyle;rounded=0;orthogonalLoop=1;jettySize=auto;html=1;entryX=0.063;entryY=-0.003;entryDx=0;entryDy=0;entryPerimeter=0;endArrow=none;startFill=0;" edge="1" parent="1">
          <mxGeometry relative="1" as="geometry">
            <mxPoint x="1130" y="394.5" as="sourcePoint" />
            <mxPoint x="1060" y="394.5" as="targetPoint" />
          </mxGeometry>
        </mxCell>
        <mxCell id="JImb8V-sqcwgQgTmcxid-93" style="edgeStyle=orthogonalEdgeStyle;rounded=0;orthogonalLoop=1;jettySize=auto;html=1;entryX=0.063;entryY=-0.003;entryDx=0;entryDy=0;entryPerimeter=0;endArrow=none;startFill=0;" edge="1" parent="1">
          <mxGeometry relative="1" as="geometry">
            <mxPoint x="1130" y="422" as="sourcePoint" />
            <mxPoint x="1060" y="422" as="targetPoint" />
          </mxGeometry>
        </mxCell>
        <mxCell id="JImb8V-sqcwgQgTmcxid-94" value="&lt;font style=&quot;font-size: 14px; font-family: calibri; color: rgb(254, 255, 255); direction: ltr; letter-spacing: 0px; line-height: 120%; opacity: 1;&quot;&gt;&lt;br&gt;&lt;/font&gt;" style="verticalAlign=middle;align=center;vsdxID=5;fillColor=#647687;shape=stencil(nZBLDoAgDERP0z3SIyjew0SURgSD+Lu9kMZoXLhwN9O+tukAlrNpJg1SzDH4QW/URgNYgZTkjA4UkwJUgGXng+6DX1zLfmoymdXo17xh5zmRJ6Q42BWCfc2oJfdAr+Yv+AP9Cb7OJ3H/2JG1HNGz/84klThPVCc=);strokeColor=#314354;labelBackgroundColor=none;rounded=0;html=1;whiteSpace=wrap;fontColor=#ffffff;" vertex="1" parent="1">
          <mxGeometry x="1270" y="230" width="38" height="25" as="geometry" />
        </mxCell>
        <mxCell id="JImb8V-sqcwgQgTmcxid-95" value="&lt;font style=&quot;font-size: 14px; font-family: calibri; color: rgb(254, 255, 255); direction: ltr; letter-spacing: 0px; line-height: 120%; opacity: 1;&quot;&gt;&lt;br&gt;&lt;/font&gt;" style="verticalAlign=middle;align=center;vsdxID=8;fillColor=#647687;shape=stencil(nZBLDoAgDERP0z3SIyjew0SURgSD+Lu9kMZoXLhwN9O+tukAlrNpJg1SzDH4QW/URgNYgZTkjA4UkwJUgGXng+6DX1zLfmoymdXo17xh5zmRJ6Q42BWCfc2oJfdAr+Yv+AP9Cb7OJ3H/2JG1HNGz/84klThPVCc=);strokeColor=#314354;labelBackgroundColor=none;rounded=0;html=1;whiteSpace=wrap;fontColor=#ffffff;" vertex="1" parent="1">
          <mxGeometry x="1270" y="260" width="38" height="25" as="geometry" />
        </mxCell>
        <mxCell id="JImb8V-sqcwgQgTmcxid-96" value="&lt;font style=&quot;font-size: 14px; font-family: calibri; color: rgb(254, 255, 255); direction: ltr; letter-spacing: 0px; line-height: 120%; opacity: 1;&quot;&gt;&lt;br&gt;&lt;/font&gt;" style="verticalAlign=middle;align=center;vsdxID=8;fillColor=#647687;shape=stencil(nZBLDoAgDERP0z3SIyjew0SURgSD+Lu9kMZoXLhwN9O+tukAlrNpJg1SzDH4QW/URgNYgZTkjA4UkwJUgGXng+6DX1zLfmoymdXo17xh5zmRJ6Q42BWCfc2oJfdAr+Yv+AP9Cb7OJ3H/2JG1HNGz/84klThPVCc=);strokeColor=#314354;labelBackgroundColor=none;rounded=0;html=1;whiteSpace=wrap;fontColor=#ffffff;" vertex="1" parent="1">
          <mxGeometry x="1270" y="290" width="38" height="25" as="geometry" />
        </mxCell>
        <mxCell id="JImb8V-sqcwgQgTmcxid-97" value="&lt;font style=&quot;font-size: 14px; font-family: calibri; color: rgb(254, 255, 255); direction: ltr; letter-spacing: 0px; line-height: 120%; opacity: 1;&quot;&gt;&lt;br&gt;&lt;/font&gt;" style="verticalAlign=middle;align=center;vsdxID=8;fillColor=#647687;shape=stencil(nZBLDoAgDERP0z3SIyjew0SURgSD+Lu9kMZoXLhwN9O+tukAlrNpJg1SzDH4QW/URgNYgZTkjA4UkwJUgGXng+6DX1zLfmoymdXo17xh5zmRJ6Q42BWCfc2oJfdAr+Yv+AP9Cb7OJ3H/2JG1HNGz/84klThPVCc=);strokeColor=#314354;labelBackgroundColor=none;rounded=0;html=1;whiteSpace=wrap;fontColor=#ffffff;" vertex="1" parent="1">
          <mxGeometry x="1270" y="320" width="38" height="25" as="geometry" />
        </mxCell>
        <mxCell id="JImb8V-sqcwgQgTmcxid-98" value="&lt;font style=&quot;font-size: 14px; font-family: calibri; color: rgb(254, 255, 255); direction: ltr; letter-spacing: 0px; line-height: 120%; opacity: 1;&quot;&gt;&lt;br&gt;&lt;/font&gt;" style="verticalAlign=middle;align=center;vsdxID=8;fillColor=#647687;shape=stencil(nZBLDoAgDERP0z3SIyjew0SURgSD+Lu9kMZoXLhwN9O+tukAlrNpJg1SzDH4QW/URgNYgZTkjA4UkwJUgGXng+6DX1zLfmoymdXo17xh5zmRJ6Q42BWCfc2oJfdAr+Yv+AP9Cb7OJ3H/2JG1HNGz/84klThPVCc=);strokeColor=#314354;labelBackgroundColor=none;rounded=0;html=1;whiteSpace=wrap;fontColor=#ffffff;" vertex="1" parent="1">
          <mxGeometry x="1270" y="349" width="38" height="25" as="geometry" />
        </mxCell>
        <mxCell id="JImb8V-sqcwgQgTmcxid-99" value="&lt;font style=&quot;font-size: 14px; font-family: calibri; color: rgb(254, 255, 255); direction: ltr; letter-spacing: 0px; line-height: 120%; opacity: 1;&quot;&gt;&lt;br&gt;&lt;/font&gt;" style="verticalAlign=middle;align=center;vsdxID=8;fillColor=#647687;shape=stencil(nZBLDoAgDERP0z3SIyjew0SURgSD+Lu9kMZoXLhwN9O+tukAlrNpJg1SzDH4QW/URgNYgZTkjA4UkwJUgGXng+6DX1zLfmoymdXo17xh5zmRJ6Q42BWCfc2oJfdAr+Yv+AP9Cb7OJ3H/2JG1HNGz/84klThPVCc=);strokeColor=#314354;labelBackgroundColor=none;rounded=0;html=1;whiteSpace=wrap;fontColor=#ffffff;" vertex="1" parent="1">
          <mxGeometry x="1270" y="380" width="38" height="25" as="geometry" />
        </mxCell>
        <mxCell id="JImb8V-sqcwgQgTmcxid-100" value="&lt;font style=&quot;font-size: 14px; font-family: calibri; color: rgb(254, 255, 255); direction: ltr; letter-spacing: 0px; line-height: 120%; opacity: 1;&quot;&gt;&lt;br&gt;&lt;/font&gt;" style="verticalAlign=middle;align=center;vsdxID=8;fillColor=#647687;shape=stencil(nZBLDoAgDERP0z3SIyjew0SURgSD+Lu9kMZoXLhwN9O+tukAlrNpJg1SzDH4QW/URgNYgZTkjA4UkwJUgGXng+6DX1zLfmoymdXo17xh5zmRJ6Q42BWCfc2oJfdAr+Yv+AP9Cb7OJ3H/2JG1HNGz/84klThPVCc=);strokeColor=#314354;labelBackgroundColor=none;rounded=0;html=1;whiteSpace=wrap;fontColor=#ffffff;" vertex="1" parent="1">
          <mxGeometry x="1270" y="410" width="38" height="25" as="geometry" />
        </mxCell>
        <mxCell id="JImb8V-sqcwgQgTmcxid-101" value="&lt;font style=&quot;font-size: 14px; font-family: calibri; color: rgb(254, 255, 255); direction: ltr; letter-spacing: 0px; line-height: 120%; opacity: 1;&quot;&gt;&lt;br&gt;&lt;/font&gt;" style="verticalAlign=middle;align=center;vsdxID=8;fillColor=#647687;shape=stencil(nZBLDoAgDERP0z3SIyjew0SURgSD+Lu9kMZoXLhwN9O+tukAlrNpJg1SzDH4QW/URgNYgZTkjA4UkwJUgGXng+6DX1zLfmoymdXo17xh5zmRJ6Q42BWCfc2oJfdAr+Yv+AP9Cb7OJ3H/2JG1HNGz/84klThPVCc=);strokeColor=#314354;labelBackgroundColor=none;rounded=0;html=1;whiteSpace=wrap;fontColor=#ffffff;" vertex="1" parent="1">
          <mxGeometry x="1270" y="440" width="38" height="25" as="geometry" />
        </mxCell>
        <mxCell id="JImb8V-sqcwgQgTmcxid-114" value="" style="pointerEvents=1;verticalLabelPosition=bottom;shadow=0;dashed=0;align=center;html=1;verticalAlign=top;shape=mxgraph.electrical.signal_sources.signal_ground;" vertex="1" parent="1">
          <mxGeometry x="1330" y="490" width="45" height="30" as="geometry" />
        </mxCell>
        <mxCell id="JImb8V-sqcwgQgTmcxid-118" value="" style="endArrow=none;html=1;rounded=0;" edge="1" parent="1">
          <mxGeometry width="50" height="50" relative="1" as="geometry">
            <mxPoint x="1308" y="240" as="sourcePoint" />
            <mxPoint x="1358" y="240" as="targetPoint" />
          </mxGeometry>
        </mxCell>
        <mxCell id="JImb8V-sqcwgQgTmcxid-119" value="" style="endArrow=none;html=1;rounded=0;entryX=0.5;entryY=0;entryDx=0;entryDy=0;entryPerimeter=0;" edge="1" parent="1" target="JImb8V-sqcwgQgTmcxid-114">
          <mxGeometry width="50" height="50" relative="1" as="geometry">
            <mxPoint x="1360" y="239" as="sourcePoint" />
            <mxPoint x="1450" y="239" as="targetPoint" />
          </mxGeometry>
        </mxCell>
        <mxCell id="JImb8V-sqcwgQgTmcxid-120" value="" style="endArrow=none;html=1;rounded=0;" edge="1" parent="1">
          <mxGeometry width="50" height="50" relative="1" as="geometry">
            <mxPoint x="1308" y="269" as="sourcePoint" />
            <mxPoint x="1358" y="269" as="targetPoint" />
          </mxGeometry>
        </mxCell>
        <mxCell id="JImb8V-sqcwgQgTmcxid-121" value="" style="endArrow=none;html=1;rounded=0;" edge="1" parent="1">
          <mxGeometry width="50" height="50" relative="1" as="geometry">
            <mxPoint x="1308" y="297.75" as="sourcePoint" />
            <mxPoint x="1358" y="297.75" as="targetPoint" />
          </mxGeometry>
        </mxCell>
        <mxCell id="JImb8V-sqcwgQgTmcxid-122" value="" style="endArrow=none;html=1;rounded=0;" edge="1" parent="1">
          <mxGeometry width="50" height="50" relative="1" as="geometry">
            <mxPoint x="1308" y="332" as="sourcePoint" />
            <mxPoint x="1358" y="332" as="targetPoint" />
          </mxGeometry>
        </mxCell>
        <mxCell id="JImb8V-sqcwgQgTmcxid-123" value="" style="endArrow=none;html=1;rounded=0;" edge="1" parent="1">
          <mxGeometry width="50" height="50" relative="1" as="geometry">
            <mxPoint x="1308" y="392" as="sourcePoint" />
            <mxPoint x="1358" y="392" as="targetPoint" />
          </mxGeometry>
        </mxCell>
        <mxCell id="JImb8V-sqcwgQgTmcxid-124" value="" style="endArrow=none;html=1;rounded=0;" edge="1" parent="1">
          <mxGeometry width="50" height="50" relative="1" as="geometry">
            <mxPoint x="1308" y="422" as="sourcePoint" />
            <mxPoint x="1358" y="422" as="targetPoint" />
          </mxGeometry>
        </mxCell>
        <mxCell id="JImb8V-sqcwgQgTmcxid-125" value="" style="endArrow=none;html=1;rounded=0;" edge="1" parent="1">
          <mxGeometry width="50" height="50" relative="1" as="geometry">
            <mxPoint x="1308" y="454.5" as="sourcePoint" />
            <mxPoint x="1358" y="454.5" as="targetPoint" />
          </mxGeometry>
        </mxCell>
        <mxCell id="JImb8V-sqcwgQgTmcxid-126" value="" style="endArrow=none;html=1;rounded=0;" edge="1" parent="1">
          <mxGeometry width="50" height="50" relative="1" as="geometry">
            <mxPoint x="1308" y="360" as="sourcePoint" />
            <mxPoint x="1358" y="360" as="targetPoint" />
          </mxGeometry>
        </mxCell>
      </root>
    </mxGraphModel>
  </diagram>
</mxfile>
